# xmcd
#
# Track frame offsets:
#	150
#	18255
#	32853
#	47885
#	62500
#	78407
#	94161
#	107573
#	118971
#	137654
#	153594
#	166551
#	180963
#	197313
#	209204
#	228841
#	250178
#	265806
#	280640
#	300222
#	319257
#
# Disc length: 4489 seconds
#
# Revision: 0
# Processed by: cddbd v1.5.2PL0 Copyright (c) Steve Scherf et al.
# Submitted via: audiograbber 1.83.01
#
DISCID=10118715
DTITLE=Bellamy Brothers - The Anthology Volume 2
DYEAR=2010
DGENRE=County
TTITLE0=Back In The Day
TTITLE1=Get Into Reggae Cowboy
TTITLE2=Lovers Live Longer
TTITLE3=Jalapenos
TTITLE4=Forget About Me
TTITLE5=I'd Lie To You For Your Love
TTITLE6=Strung Out
TTITLE7=Country Rap
TTITLE8=Worlds Greatest Lover
TTITLE9=Rip Off The Knob
TTITLE10=Love By The Moon
TTITLE11=I Could Be Persuaded
TTITLE12=Crossfire
TTITLE13=Up And Away
TTITLE14=She Don't Know That She's Perfect
TTITLE15=Where's Your Brother
TTITLE16=Cowboy Beat
TTITLE17=I Love Her Mind
TTITLE18=Lost In Ireland
TTITLE19=She's Awesome
TTITLE20=Jalapenos (Rowdy Alternative Version)
EXTD=
EXTT0=
EXTT1=
EXTT2=
EXTT3=
EXTT4=
EXTT5=
EXTT6=
EXTT7=
EXTT8=
EXTT9=
EXTT10=
EXTT11=
EXTT12=
EXTT13=
EXTT14=
EXTT15=
EXTT16=
EXTT17=
EXTT18=
EXTT19=
EXTT20=
PLAYORDER=
